<?xml version="1.0" encoding="UTF-8" standalone="no"?>
<svg
   version="1.1"
   x="0px"
   y="0px"
   viewBox="358.7 544.1 10000 12500"
   enable-background="new 358.7 544.1 100 100"
   xml:space="preserve"
   id="svg9"
   sodipodi:docname="noun-call-log-3834191.svg"
   width="10000"
   height="12500"
   xmlns:inkscape="http://www.inkscape.org/namespaces/inkscape"
   xmlns:sodipodi="http://sodipodi.sourceforge.net/DTD/sodipodi-0.dtd"
   xmlns="http://www.w3.org/2000/svg"
   xmlns:svg="http://www.w3.org/2000/svg"><defs
     id="defs9"><inkscape:path-effect
       effect="fillet_chamfer"
       id="path-effect9"
       is_visible="true"
       lpeversion="1"
       nodesatellites_param="F,0,0,1,0,15,0,1 @ F,0,0,1,0,15,0,1 @ F,0,0,1,0,15,0,1 @ F,0,0,1,0,15,0,1"
       radius="15"
       unit="px"
       method="auto"
       mode="F"
       chamfer_steps="1"
       flexible="false"
       use_knot_distance="true"
       apply_no_radius="true"
       apply_with_radius="true"
       only_selected="false"
       hide_knots="false" /></defs><sodipodi:namedview
     id="namedview9"
     pagecolor="#ffffff"
     bordercolor="#000000"
     borderopacity="0.25"
     inkscape:showpageshadow="2"
     inkscape:pageopacity="0.0"
     inkscape:pagecheckerboard="0"
     inkscape:deskcolor="#d1d1d1"
     inkscape:zoom="8.7454967"
     inkscape:cx="52.655672"
     inkscape:cy="52.998705"
     inkscape:window-width="1920"
     inkscape:window-height="991"
     inkscape:window-x="-9"
     inkscape:window-y="-9"
     inkscape:window-maximized="1"
     inkscape:current-layer="svg9"><inkscape:page
       x="0"
       y="0"
       width="10000"
       height="12500"
       id="page2"
       margin="0"
       bleed="0" /></sodipodi:namedview><path
     style="fill:#5aa02c"
     id="rect9"
     width="78.888924"
     height="67.471382"
     x="368.26178"
     y="564.39331"
     inkscape:path-effect="#path-effect9"
     sodipodi:type="rect"
     d="m 383.26178,564.39331 h 48.88892 a 15,15 45 0 1 15,15 v 37.47138 a 15,15 135 0 1 -15,15 h -48.88892 a 15,15 45 0 1 -15,-15 v -37.47138 a 15,15 135 0 1 15,-15 z"
     transform="translate(0,0.00305176)" /><rect
     x="358.70001"
     y="544.10303"
     fill="none"
     width="100"
     height="100"
     id="rect1" /><g
     id="g8"
     transform="matrix(0.62605648,0,0,0.62605648,151.86048,226.20505)"
     style="fill:#ffffff"><g
       id="g3"
       style="fill:#ffffff"><g
         id="g2"
         style="fill:#ffffff"><g
           id="g1"
           style="fill:#ffffff"><path
             d="m 435.2,616 -10.7,-10.7 c -3.8,-3.8 -10.3,-2.3 -11.9,2.7 -1.1,3.4 -5,5.4 -8.4,4.6 -7.6,-1.9 -18,-11.9 -19.9,-19.9 -1.1,-3.4 1.1,-7.3 4.6,-8.4 5,-1.5 6.5,-8 2.7,-11.9 l -10.7,-10.7 c -3.1,-2.7 -7.6,-2.7 -10.3,0 l -7.3,7.3 c -7.3,7.6 0.8,27.9 18.7,45.9 17.9,18 38.2,26.4 45.9,18.7 l 7.3,-7.3 c 2.7,-3 2.7,-7.6 0,-10.3 z"
             id="path1"
             style="fill:#ffffff" /></g></g></g><g
       id="g4"
       style="fill:#ffffff"><path
         d="m 446.2,624.1 h -4.5 v -5.6 h 4.5 c 2.7,0 4.9,-2.2 4.9,-4.9 v -51.4 c 0,-2.7 -2.2,-4.9 -4.9,-4.9 h -30.4 c -2.7,0 -4.9,2.2 -4.9,4.9 v 41 h -5.6 v -41 c 0,-5.8 4.7,-10.5 10.5,-10.5 h 30.4 c 5.8,0 10.5,4.7 10.5,10.5 v 51.4 c 0,5.8 -4.7,10.5 -10.5,10.5 z"
         id="path3"
         style="fill:#ffffff" /></g><g
       id="g5"
       style="fill:#ffffff"><rect
         x="419.39999"
         y="567.20001"
         width="23.799999"
         height="5.5999999"
         id="rect4"
         style="fill:#ffffff" /></g><g
       id="g6"
       style="fill:#ffffff"><rect
         x="419.39999"
         y="580.90002"
         width="23.799999"
         height="5.5999999"
         id="rect5"
         style="fill:#ffffff" /></g><g
       id="g7"
       style="fill:#ffffff"><rect
         x="419.39999"
         y="594.59998"
         width="23.799999"
         height="5.5999999"
         id="rect6"
         style="fill:#ffffff" /></g></g></svg>
